<?xml version="1.0" standalone="no"?>
<!DOCTYPE svg PUBLIC "-//W3C//DTD SVG 20010904//EN"
 "http://www.w3.org/TR/2001/REC-SVG-20010904/DTD/svg10.dtd">
<svg version="1.0" xmlns="http://www.w3.org/2000/svg"
 width="173.000000pt" height="94.000000pt" viewBox="0 0 173.000000 94.000000"
 preserveAspectRatio="xMidYMid meet">

<g transform="translate(0.000000,94.000000) scale(0.100000,-0.100000)"
fill="#000000" stroke="none">
<path d="M45 885 l-25 -24 0 -396 0 -396 25 -24 24 -25 793 0 c608 1 797 3
809 13 37 29 39 47 39 440 l0 384 -25 27 -24 26 -796 0 -796 0 -24 -25z m325
-150 c0 -32 -2 -35 -30 -35 l-30 0 0 -136 0 -135 -36 3 -36 3 1 133 2 132 -36
0 c-32 0 -35 3 -35 28 0 16 3 32 7 35 3 4 48 7 100 7 l93 0 0 -35z m215 10
c24 -23 25 -30 25 -142 0 -136 -8 -156 -69 -174 -29 -9 -47 -9 -75 1 -58 19
-66 39 -66 173 0 112 1 119 25 142 20 21 34 25 80 25 46 0 60 -4 80 -25z m242
5 c35 -21 50 -66 38 -118 -8 -40 -36 -63 -84 -69 l-40 -6 -3 -61 -3 -61 -40 0
-40 0 -3 155 c-1 85 0 160 2 167 9 22 134 17 173 -7z m468 -5 c24 -23 25 -30
25 -143 0 -146 -8 -162 -88 -170 -47 -4 -54 -2 -82 26 -30 30 -30 31 -30 142
0 110 0 112 29 141 40 39 109 41 146 4z m230 0 c24 -23 25 -30 25 -143 0 -146
-8 -162 -88 -170 -47 -4 -54 -2 -82 26 -30 30 -30 31 -30 142 0 110 0 112 29
141 40 39 109 41 146 4z m-445 -151 l0 -165 -36 3 -36 3 -2 110 -1 110 -32 3
c-27 3 -33 7 -33 28 0 17 6 24 19 24 11 0 33 11 48 25 15 13 38 25 51 25 22 0
22 0 22 -166z m198 -346 l3 -108 -128 0 -128 0 2 107 c1 60 2 109 2 111 1 1
56 1 124 0 l122 -3 3 -107z m-750 60 c26 -26 7 -78 -29 -78 -12 0 -15 -6 -11
-25 3 -20 0 -25 -17 -25 -19 0 -21 5 -21 70 l0 70 33 0 c18 0 38 -5 45 -12z
m101 3 c9 -6 12 -19 9 -36 -3 -15 -2 -42 2 -61 7 -32 6 -35 -13 -32 -13 2 -22
10 -22 20 0 9 -4 20 -8 24 -4 4 -7 -5 -7 -19 0 -20 -5 -27 -20 -27 -18 0 -20
7 -20 70 l0 70 33 0 c17 0 38 -4 46 -9z m109 -56 c3 -47 0 -62 -14 -72 -42
-30 -74 -1 -74 66 0 55 14 73 55 69 29 -3 30 -4 33 -63z m70 33 c4 -38 22 -36
22 2 0 25 4 30 25 30 24 0 25 -2 25 -70 0 -56 -3 -70 -15 -70 -10 0 -15 11
-16 33 l-1 32 -9 -32 c-5 -18 -16 -33 -24 -33 -10 0 -16 11 -17 33 l-1 32 -4
-32 c-3 -23 -10 -33 -21 -33 -14 0 -17 10 -15 67 1 38 2 69 2 71 1 2 11 2 24
0 16 -2 23 -11 25 -30z m172 13 c27 -51 2 -131 -41 -131 -39 0 -64 83 -39 131
14 26 66 26 80 0z"/>
<path d="M485 697 c-3 -7 -4 -56 -3 -108 3 -86 5 -94 23 -94 19 0 20 7 20 105
0 92 -2 105 -18 108 -9 2 -19 -3 -22 -11z"/>
<path d="M739 705 c0 -3 -1 -22 -1 -42 -1 -42 12 -52 36 -28 17 18 20 34 8 51
-8 11 -41 26 -43 19z"/>
<path d="M1200 600 c0 -101 2 -110 19 -110 26 0 31 19 31 110 0 91 -5 110 -31
110 -17 0 -19 -9 -19 -110z"/>
<path d="M1430 600 c0 -110 0 -111 23 -108 21 3 22 7 22 108 0 101 -1 105 -22
108 -23 3 -23 2 -23 -108z"/>
<path d="M483 275 c0 -8 4 -15 9 -15 4 0 8 7 8 15 0 8 -4 15 -8 15 -5 0 -9 -7
-9 -15z"/>
<path d="M590 274 c0 -8 5 -12 10 -9 6 4 8 11 5 16 -9 14 -15 11 -15 -7z"/>
<path d="M690 244 c0 -27 4 -43 10 -39 6 3 10 24 10 46 0 21 -4 39 -10 39 -5
0 -10 -21 -10 -46z"/>
<path d="M930 245 c0 -25 5 -45 10 -45 6 0 10 20 10 45 0 25 -4 45 -10 45 -5
0 -10 -20 -10 -45z"/>
</g>
</svg>
